<?xml version="1.0" encoding="utf-8"?>
<!-- Generator: Adobe Illustrator 28.2.0, SVG Export Plug-In . SVG Version: 6.00 Build 0)  -->
<svg version="1.1" id="Layer_1" xmlns="http://www.w3.org/2000/svg" xmlns:xlink="http://www.w3.org/1999/xlink" x="0px" y="0px"
	 viewBox="0 0 1200 1200" style="enable-background:new 0 0 1200 1200;" xml:space="preserve">
<style type="text/css">
	.st0{fill:#223F99;}
	.st1{fill:#364099;}
	.st2{fill:#141542;}
</style>
<path class="st0" d="M671.02,446.71V594.3c0,23.97,8.61,35.95,25.83,35.95c7.35,0,13.58-2.5,18.7-7.5c5.12-5,7.68-11.05,7.68-18.15
	c0-7.34-2.41-13.52-7.23-18.52c-4.82-5-10.72-7.5-17.7-7.5c-4.94,0-10.6,2.17-16.98,6.5v-74.43c7.95-0.72,13.97-1.08,18.06-1.08
	c25.41,0,47.18,9.15,65.3,27.46c18.12,18.31,27.19,40.35,27.19,66.12c0,26.37-9.21,48.59-27.64,66.66s-41.07,27.1-67.92,27.1
	c-13.49,0-26.65-2.95-39.47-8.85c-12.83-5.9-23.39-13.85-31.7-23.85c-14.45-17.34-21.68-39.8-21.68-67.38V446.71H671.02z"/>
<rect x="805.16" y="512.89" class="st0" width="67.16" height="180.71"/>
<path class="st0" d="M956.39,446.56v69.01h30.35v71.36h-30.35c0,14.34,2.26,24.21,6.77,29.63c4.52,5.42,12.79,8.13,24.84,8.13v71
	c-3.49,0.12-6.08,0.18-7.77,0.18c-15.3,0-29.72-3.55-43.27-10.66c-13.55-7.11-24.42-16.74-32.61-28.9
	c-10.36-15.54-15.54-36.13-15.54-61.78V446.56H956.39z"/>
<path class="st0" d="M566.97,509.39c-23.73,0-42.7,7.74-56.9,23.21c-14.21,15.48-21.32,36.22-21.32,62.23v0.89
	c9.34,7.17,19,14.02,27.73,21.82c5.75,5.14,10.7,11.49,14.61,18.07c6.64,11.17,2.64,22.28-9.89,26.73
	c-7.68,2.73-16.19,4.06-24.41,4.51c-2.68,0.14-5.36,0.21-8.03,0.21v26.22h67.56v-85.45c0-18.79,6.14-28.18,18.42-28.18
	c3.85,0,8.13,1.33,12.83,3.98v-72.26C579.13,510.05,572.26,509.39,566.97,509.39z"/>
<path class="st1" d="M487.06,594.44c-0.65,0.69-1.3,1.39-1.95,2.08c1.18,0.65,2.58,1.09,3.51,1.97c0.04,0.04,0.08,0.08,0.12,0.11
	v-2.88C488.18,595.3,487.62,594.88,487.06,594.44z"/>
<path class="st0" d="M531.08,635.62c-3.91-6.57-8.85-12.92-14.61-18.07c-8.73-7.8-18.39-14.65-27.73-21.82v2.88
	c8.52,8.15,17.34,16.06,25.25,24.74c4.24,4.65,7.46,10.42,10.03,16.14c3.12,6.97,0.59,11.66-6.93,13.87
	c-4.36,1.28-9.05,2.01-13.61,2.12c-4.95,0.12-9.86,0-14.74-0.33c-22.36-1.48-43.96-7.22-65.41-13.34
	c-61.51-17.56-120.02-42.05-176.09-71.89c-23.84-12.69-47.24-26.22-67.57-43.81c-7.69-6.65-14.43-14.58-20.38-22.74
	c-4.74-6.5-2.18-12.38,5.27-15.98c2.36-1.14,4.94-2.29,7.51-2.53c9.54-0.91,19.11-1.48,28.67-2.11c1.41-0.09,2.84,0.18,4.27,0.22
	c1.41,0.04,2.83,0.01,4.25,0.01c-14.44-3-28.97-5.13-43.42-2.11c-15.14,3.17-20.74,13.58-14.05,26.93
	c4.02,8.01,9.59,15.61,15.83,22.22c17.82,18.88,39.38,33.52,61.75,46.99c54.76,32.98,113.3,57.99,175.29,75.63
	c1.71,0.49,3.34,1.22,5.33,1.96C374.98,688.97,292,703.6,236.36,642.14c3.07,4.65,6.28,9.26,10.07,13.37
	c47.05,50.85,127.67,54.09,179.02,7.14c3.13-2.86,5.86-3.48,9.94-2.58c17.58,3.88,35.33,7,53.35,7.01c2.67,0,5.35-0.07,8.03-0.21
	c8.23-0.44,16.73-1.78,24.41-4.51C533.72,657.9,537.72,646.79,531.08,635.62z"/>
<path class="st2" d="M377.67,470.74c53.27,21.37,80.77,76.29,66.86,130.27c-3.43,13.3-15.55,22.93-29.94,23.81
	c-0.94,0.06-1.87,0.29-2.8,0.44c-0.07,0.48-0.14,0.95-0.2,1.43c10.53,2.85,21.11,5.58,31.57,8.63c3.45,1.01,5.09,0.07,6.69-2.81
	c9.35-16.85,14.96-34.7,15.21-53.82c0.67-50.88-21.9-89.36-68.94-113.14c-34.21-17.3-70.03-17.67-105.78-3.5
	c-15.24,6.04-28.32,15.25-39.07,27.4c1.32-1.01,2.61-2.07,3.96-3.04C293.01,459.42,334.19,453.29,377.67,470.74z"/>
<path class="st1" d="M454.78,495.84c0.87-11.25,5.93-18.62,18.64-19.47c-13.46-3.07-14.88-4.49-18.99-19.74
	c-0.27,12.15-6.19,18.45-18.36,19.64C449.11,477.25,454.03,484.5,454.78,495.84z"/>
<path class="st0" d="M838.79,506.79c1.56-20.23,10.67-33.49,33.52-35c-24.2-5.53-26.76-8.08-34.14-35.5
	c-0.48,21.85-11.14,33.18-33.01,35.32C828.6,473.36,837.44,486.4,838.79,506.79z"/>
<path class="st2" d="M424.53,462.67c0.48-6.16,3.25-10.2,10.21-10.66c-7.37-1.68-8.15-2.46-10.4-10.82
	c-0.15,6.66-3.39,10.11-10.06,10.76C421.43,452.49,424.12,456.46,424.53,462.67z"/>
<g>
	<path class="st2" d="M244.94,818.57h-15.3l-9.23-50.34l-17.92,51.55h-5.65l-17.91-51.55l-9.6,50.34h-15.24l17.92-93.42h8.38
		l19.25,62.9l18.83-62.9h8.32L244.94,818.57z"/>
	<path class="st2" d="M311.81,789.26h-46.46c0.28,5.44,2.06,9.66,5.34,12.68c3.28,3.02,7.69,4.52,13.24,4.52
		c6.92,0,12.18-1.89,15.79-5.67l5.89,12.17c-5.35,4.55-13.32,6.82-23.93,6.82c-9.92,0-17.76-3.05-23.53-9.15
		c-5.77-6.09-8.65-14.6-8.65-25.52c0-10.75,3.17-19.45,9.51-26.13c6.33-6.67,13.94-10,22.8-10c9.44,0,17.01,2.95,22.71,8.86
		c5.71,5.91,8.57,13.42,8.57,22.56C313.09,782.35,312.66,785.31,311.81,789.26z M265.9,777.28h31.94
		c-1.05-9.98-6.32-14.97-15.79-14.97C273.39,762.3,268,767.3,265.9,777.28z"/>
	<path class="st2" d="M367.07,818.51v-4.14c-1.25,1.44-3.38,2.71-6.38,3.79c-3,1.08-6.09,1.62-9.29,1.62
		c-9.07,0-16.2-3.02-21.41-9.05s-7.8-14.44-7.8-25.23c0-10.79,2.98-19.57,8.96-26.35c5.97-6.77,13.45-10.16,22.44-10.16
		c4.94,0,9.43,1.06,13.48,3.18v-27.34l15.19-3.82v97.5H367.07z M367.07,766.57c-3.24-2.72-6.62-4.08-10.14-4.08
		c-6.07,0-10.75,1.94-14.03,5.83c-3.28,3.89-4.92,9.46-4.92,16.73c0,14.19,6.52,21.28,19.56,21.28c1.46,0,3.25-0.45,5.38-1.37
		c2.12-0.91,3.51-1.83,4.16-2.77V766.57z"/>
	<path class="st2" d="M401.51,818.51v-55.18h-8.32v-13.06h23.69v68.25H401.51z M409.35,723.81c2.43,0,4.5,0.9,6.22,2.71
		c1.72,1.81,2.58,3.98,2.58,6.53s-0.86,4.73-2.58,6.53c-1.72,1.81-3.8,2.71-6.22,2.71s-4.51-0.9-6.22-2.71
		c-1.72-1.8-2.58-3.98-2.58-6.53s0.86-4.72,2.58-6.53C404.84,724.72,406.92,723.81,409.35,723.81z"/>
	<path class="st2" d="M470.75,811.69c-1.38,2.38-3.78,4.32-7.2,5.83c-3.42,1.51-6.99,2.26-10.72,2.26c-7.01,0-12.51-1.84-16.52-5.51
		c-4.01-3.67-6.01-8.89-6.01-15.64c0-7.9,2.82-14.09,8.47-18.54c5.65-4.46,13.67-6.69,24.08-6.69c1.78,0,3.89,0.32,6.32,0.95
		c0-8.03-4.84-12.04-14.52-12.04c-5.71,0-10.49,1-14.33,2.99l-3.28-12.37c5.22-2.63,11.44-3.95,18.64-3.95
		c9.92,0,17.19,2.37,21.81,7.1c4.61,4.74,6.92,13.71,6.92,26.92v14.59c0,9.09,1.74,14.8,5.22,17.14c-1.25,2.3-2.65,3.71-4.19,4.24
		c-1.54,0.53-3.3,0.8-5.28,0.8c-2.19,0-4.15-0.85-5.89-2.55C472.52,815.53,471.35,813.69,470.75,811.69z M469.29,786.39
		c-2.59-0.55-4.54-0.82-5.83-0.82c-11.99,0-17.98,4.12-17.98,12.36c0,6.12,3.38,9.18,10.14,9.18c9.11,0,13.66-4.78,13.66-14.34
		V786.39z"/>
	<path class="st2" d="M534.94,813.35l5.83-14.85c6.23,4.59,12.37,6.88,18.4,6.88c9.27,0,13.91-3.4,13.91-10.2
		c0-3.18-1.09-6.22-3.28-9.11c-2.19-2.89-6.69-6.13-13.51-9.72c-6.82-3.59-11.42-6.54-13.79-8.86c-2.37-2.32-4.19-5.07-5.47-8.25
		c-1.27-3.19-1.91-6.71-1.91-10.58c0-7.22,2.52-13.21,7.56-17.97c5.04-4.76,11.51-7.14,19.41-7.14c10.28,0,17.83,2.02,22.65,6.06
		l-4.8,14.28c-5.55-4.16-11.4-6.24-17.55-6.24c-3.64,0-6.47,1.01-8.47,3.03c-2,2.02-3.01,4.64-3.01,7.87
		c0,5.35,5.65,10.92,16.95,16.7c5.95,3.06,10.24,5.87,12.87,8.45c2.63,2.57,4.64,5.57,6.01,8.98c1.38,3.42,2.07,7.23,2.07,11.44
		c0,7.56-2.85,13.79-8.53,18.67c-5.69,4.88-13.31,7.33-22.87,7.33C549.11,820.1,541.62,817.85,534.94,813.35z"/>
	<path class="st2" d="M597.61,784.22c0-10.41,2.87-18.88,8.6-25.42c5.73-6.54,13.29-9.81,22.68-9.81c9.88,0,17.55,3.14,23.02,9.43
		c5.47,6.29,8.2,14.89,8.2,25.81c0,10.88-2.79,19.52-8.35,25.94c-5.57,6.42-13.19,9.62-22.86,9.62c-9.88,0-17.56-3.24-23.05-9.72
		C600.36,803.59,597.61,794.97,597.61,784.22z M613.4,784.22c0,15.04,5.16,22.56,15.49,22.56c4.74,0,8.49-1.95,11.26-5.86
		c2.77-3.91,4.16-9.47,4.16-16.7c0-14.83-5.14-22.24-15.42-22.24c-4.74,0-8.5,1.95-11.3,5.87
		C614.8,771.75,613.4,777.21,613.4,784.22z"/>
	<path class="st2" d="M674.86,724.83l15.18-3.82v76.72c0,8.41,2.39,13.43,7.17,15.04c-2.35,4.67-6.35,7.01-12.02,7.01
		c-6.88,0-10.32-5.01-10.32-15.04V724.83z"/>
	<path class="st2" d="M750.84,818.57v-5.73c-2.15,1.91-5.1,3.55-8.87,4.91c-3.77,1.36-7.22,2.04-10.39,2.04
		c-15.1,0-22.65-8.41-22.65-25.23v-44.29h15.18v43.07c0,8.75,3.74,13.13,11.23,13.13c3.44,0,6.64-0.93,9.6-2.8
		c2.95-1.87,4.92-4.04,5.89-6.5v-46.9h15.18v68.31H750.84z"/>
	<path class="st2" d="M784.73,763.07h-7.53v-12.81h7.53v-13.89l15.18-5.87v19.76h17.85v12.81h-17.85v29.89
		c0,4.89,0.73,8.34,2.19,10.35c1.46,2.02,4.01,3.03,7.65,3.03s7.04-1.04,10.2-3.12v14.66c-3.52,1.27-8.54,1.91-15.06,1.91
		c-6.48,0-11.46-1.92-14.94-5.77c-3.48-3.84-5.22-9.31-5.22-16.41V763.07z"/>
	<path class="st2" d="M835.8,818.51v-55.18h-8.32v-13.06h23.69v68.25H835.8z M843.63,723.81c2.43,0,4.5,0.9,6.22,2.71
		c1.72,1.81,2.58,3.98,2.58,6.53s-0.86,4.73-2.58,6.53c-1.72,1.81-3.8,2.71-6.22,2.71s-4.51-0.9-6.22-2.71
		c-1.72-1.8-2.58-3.98-2.58-6.53s0.86-4.72,2.58-6.53C839.13,724.72,841.21,723.81,843.63,723.81z"/>
	<path class="st2" d="M864.59,784.22c0-10.41,2.87-18.88,8.6-25.42c5.73-6.54,13.29-9.81,22.68-9.81c9.88,0,17.55,3.14,23.02,9.43
		c5.47,6.29,8.2,14.89,8.2,25.81c0,10.88-2.79,19.52-8.35,25.94c-5.57,6.42-13.19,9.62-22.86,9.62c-9.88,0-17.56-3.24-23.05-9.72
		C867.33,803.59,864.59,794.97,864.59,784.22z M880.38,784.22c0,15.04,5.16,22.56,15.49,22.56c4.74,0,8.49-1.95,11.26-5.86
		c2.77-3.91,4.16-9.47,4.16-16.7c0-14.83-5.14-22.24-15.42-22.24c-4.74,0-8.5,1.95-11.3,5.87
		C881.77,771.75,880.38,777.21,880.38,784.22z"/>
	<path class="st2" d="M981.07,818.51v-39.44c0-5.82-1.06-10.07-3.19-12.75s-5.6-4.01-10.41-4.01c-2.23,0-4.61,0.66-7.14,1.97
		c-2.53,1.32-4.51,2.95-5.92,4.91v49.32h-15.18v-68.25h10.93l2.79,6.37c4.13-5.1,10.23-7.65,18.28-7.65
		c7.73,0,13.84,2.43,18.31,7.29s6.71,11.65,6.71,20.36v41.87H981.07z"/>
	<path class="st2" d="M1003.02,815.42l5.39-10.78c5.76,3.33,11.44,4.99,17.01,4.99c8.57,0,12.86-2.46,12.86-7.4
		c0-2.31-1.01-4.52-3.03-6.61c-2.02-2.1-6.19-4.45-12.49-7.05c-6.31-2.61-10.56-4.75-12.74-6.43c-2.19-1.68-3.87-3.68-5.06-5.99
		c-1.18-2.31-1.77-4.87-1.77-7.68c0-5.24,2.33-9.59,6.99-13.04c4.66-3.45,10.64-5.18,17.94-5.18c9.51,0,16.49,1.47,20.94,4.39
		l-4.44,10.36c-5.13-3.02-10.54-4.53-16.23-4.53c-3.37,0-5.98,0.73-7.83,2.2c-1.85,1.47-2.78,3.37-2.78,5.71
		c0,3.89,5.22,7.92,15.67,12.12c5.5,2.22,9.47,4.26,11.9,6.13s4.29,4.04,5.56,6.52c1.27,2.48,1.91,5.25,1.91,8.3
		c0,5.49-2.63,10-7.89,13.55c-5.26,3.54-12.31,5.32-21.14,5.32C1016.12,820.32,1009.19,818.69,1003.02,815.42z"/>
</g>
</svg>
